<svg width="147" height="34" viewBox="0 0 147 34" fill="none" xmlns="http://www.w3.org/2000/svg">
<path d="M2.755 27C2.54233 27 2.36833 26.9323 2.233 26.797C2.09767 26.6617 2.03 26.4877 2.03 26.275V7.425C2.03 7.21233 2.09767 7.03833 2.233 6.903C2.36833 6.76767 2.54233 6.7 2.755 6.7H6.496C6.70867 6.7 6.88267 6.76767 7.018 6.903C7.15333 7.03833 7.221 7.21233 7.221 7.425V14.414H14.384V7.425C14.384 7.21233 14.4517 7.03833 14.587 6.903C14.7223 6.76767 14.8963 6.7 15.109 6.7H18.85C19.0627 6.7 19.2367 6.76767 19.372 6.903C19.5073 7.03833 19.575 7.21233 19.575 7.425V26.275C19.575 26.4877 19.5073 26.6617 19.372 26.797C19.2367 26.9323 19.0627 27 18.85 27H15.109C14.8963 27 14.7223 26.9323 14.587 26.797C14.4517 26.6617 14.384 26.4877 14.384 26.275V19.054H7.221V26.275C7.221 26.4877 7.15333 26.6617 7.018 26.797C6.88267 26.9323 6.70867 27 6.496 27H2.755ZM32.1354 27.29C30.3954 27.29 28.8681 27.0097 27.5534 26.449C26.2581 25.869 25.2527 24.9893 24.5374 23.81C23.8221 22.6113 23.4644 21.0937 23.4644 19.257V7.425C23.4644 7.21233 23.5321 7.03833 23.6674 6.903C23.8027 6.76767 23.9767 6.7 24.1894 6.7H27.9304C28.1431 6.7 28.3171 6.76767 28.4524 6.903C28.5877 7.03833 28.6554 7.21233 28.6554 7.425V19.228C28.6554 20.4847 28.9551 21.432 29.5544 22.07C30.1731 22.6887 31.0334 22.998 32.1354 22.998C33.2181 22.998 34.0591 22.6887 34.6584 22.07C35.2771 21.432 35.5864 20.4847 35.5864 19.228V7.425C35.5864 7.21233 35.6541 7.03833 35.7894 6.903C35.9441 6.76767 36.1181 6.7 36.3114 6.7H40.0814C40.2747 6.7 40.4391 6.76767 40.5744 6.903C40.7291 7.03833 40.8064 7.21233 40.8064 7.425V19.257C40.8064 21.0937 40.4487 22.6113 39.7334 23.81C39.0181 24.9893 38.0127 25.869 36.7174 26.449C35.4221 27.0097 33.8947 27.29 32.1354 27.29ZM45.3771 27C45.1644 27 44.9904 26.9323 44.8551 26.797C44.7197 26.6617 44.6521 26.4877 44.6521 26.275V7.425C44.6521 7.21233 44.7197 7.03833 44.8551 6.903C44.9904 6.76767 45.1644 6.7 45.3771 6.7H54.2221C55.8847 6.7 57.2477 6.932 58.3111 7.396C59.3744 7.86 60.1574 8.527 60.6601 9.397C61.1821 10.2477 61.4431 11.2627 61.4431 12.442C61.4431 13.138 61.3077 13.7567 61.0371 14.298C60.7857 14.82 60.4667 15.255 60.0801 15.603C59.7127 15.951 59.3647 16.2023 59.0361 16.357C59.7707 16.705 60.4184 17.2753 60.9791 18.068C61.5591 18.8607 61.8491 19.7887 61.8491 20.852C61.8491 22.128 61.5591 23.23 60.9791 24.158C60.4184 25.0667 59.5871 25.7723 58.4851 26.275C57.4024 26.7583 56.0684 27 54.4831 27H45.3771ZM49.8431 23.23H53.9031C54.7344 23.23 55.3627 22.9883 55.7881 22.505C56.2134 22.0217 56.4261 21.4707 56.4261 20.852C56.4261 20.1753 56.2037 19.605 55.7591 19.141C55.3337 18.677 54.7151 18.445 53.9031 18.445H49.8431V23.23ZM49.8431 14.762H53.6421C54.4347 14.762 55.0244 14.559 55.4111 14.153C55.8171 13.747 56.0201 13.225 56.0201 12.587C56.0201 11.9683 55.8171 11.4657 55.4111 11.079C55.0244 10.673 54.4347 10.47 53.6421 10.47H49.8431V14.762Z" fill="black"/>
<path d="M71.98 27C71.8467 27 71.7333 26.96 71.64 26.88C71.56 26.7867 71.52 26.6733 71.52 26.54V18.2H69.82C69.6867 18.2 69.5733 18.16 69.48 18.08C69.4 17.9867 69.36 17.8733 69.36 17.74V17.06C69.36 16.9267 69.4 16.82 69.48 16.74C69.5733 16.6467 69.6867 16.6 69.82 16.6H71.52V15.6C71.52 14.92 71.6333 14.3267 71.86 13.82C72.0867 13.3 72.4467 12.9 72.94 12.62C73.4467 12.34 74.12 12.2 74.96 12.2H76.16C76.2933 12.2 76.4 12.2467 76.48 12.34C76.56 12.42 76.6 12.5267 76.6 12.66V13.34C76.6 13.4733 76.56 13.5867 76.48 13.68C76.4 13.76 76.2933 13.8 76.16 13.8H75C74.3733 13.8 73.9467 13.9667 73.72 14.3C73.4933 14.62 73.38 15.0867 73.38 15.7V16.6H75.96C76.0933 16.6 76.2 16.6467 76.28 16.74C76.36 16.82 76.4 16.9267 76.4 17.06V17.74C76.4 17.8733 76.36 17.9867 76.28 18.08C76.2 18.16 76.0933 18.2 75.96 18.2H73.38V26.54C73.38 26.6733 73.3333 26.7867 73.24 26.88C73.16 26.96 73.0533 27 72.92 27H71.98ZM82.24 27.2C81.2267 27.2 80.38 27.0067 79.7 26.62C79.02 26.2333 78.5 25.7 78.14 25.02C77.78 24.3267 77.58 23.54 77.54 22.66C77.5267 22.4333 77.52 22.1467 77.52 21.8C77.52 21.44 77.5267 21.1533 77.54 20.94C77.58 20.0467 77.78 19.26 78.14 18.58C78.5133 17.9 79.04 17.3667 79.72 16.98C80.4 16.5933 81.24 16.4 82.24 16.4C83.24 16.4 84.08 16.5933 84.76 16.98C85.44 17.3667 85.96 17.9 86.32 18.58C86.6933 19.26 86.9 20.0467 86.94 20.94C86.9533 21.1533 86.96 21.44 86.96 21.8C86.96 22.1467 86.9533 22.4333 86.94 22.66C86.9 23.54 86.7 24.3267 86.34 25.02C85.98 25.7 85.46 26.2333 84.78 26.62C84.1 27.0067 83.2533 27.2 82.24 27.2ZM82.24 25.66C83.0667 25.66 83.7267 25.4 84.22 24.88C84.7133 24.3467 84.98 23.5733 85.02 22.56C85.0333 22.36 85.04 22.1067 85.04 21.8C85.04 21.4933 85.0333 21.24 85.02 21.04C84.98 20.0267 84.7133 19.26 84.22 18.74C83.7267 18.2067 83.0667 17.94 82.24 17.94C81.4133 17.94 80.7467 18.2067 80.24 18.74C79.7467 19.26 79.4867 20.0267 79.46 21.04C79.4467 21.24 79.44 21.4933 79.44 21.8C79.44 22.1067 79.4467 22.36 79.46 22.56C79.4867 23.5733 79.7467 24.3467 80.24 24.88C80.7467 25.4 81.4133 25.66 82.24 25.66ZM89.9244 27C89.791 27 89.6777 26.96 89.5844 26.88C89.5044 26.7867 89.4644 26.6733 89.4644 26.54V17.08C89.4644 16.9467 89.5044 16.8333 89.5844 16.74C89.6777 16.6467 89.791 16.6 89.9244 16.6H90.8444C90.9777 16.6 91.091 16.6467 91.1844 16.74C91.2777 16.8333 91.3244 16.9467 91.3244 17.08V17.96C91.591 17.5067 91.9577 17.1667 92.4244 16.94C92.891 16.7133 93.451 16.6 94.1044 16.6H94.9044C95.0377 16.6 95.1444 16.6467 95.2244 16.74C95.3044 16.82 95.3444 16.9267 95.3444 17.06V17.88C95.3444 18.0133 95.3044 18.12 95.2244 18.2C95.1444 18.28 95.0377 18.32 94.9044 18.32H93.7044C92.9844 18.32 92.4177 18.5333 92.0044 18.96C91.591 19.3733 91.3844 19.94 91.3844 20.66V26.54C91.3844 26.6733 91.3377 26.7867 91.2444 26.88C91.151 26.96 91.0377 27 90.9044 27H89.9244ZM101.007 27.2C99.6334 27.2 98.5401 26.78 97.7267 25.94C96.9134 25.0867 96.4667 23.9267 96.3867 22.46C96.3734 22.2867 96.3667 22.0667 96.3667 21.8C96.3667 21.52 96.3734 21.2933 96.3867 21.12C96.4401 20.1733 96.6601 19.3467 97.0467 18.64C97.4334 17.92 97.9601 17.3667 98.6267 16.98C99.3067 16.5933 100.1 16.4 101.007 16.4C102.02 16.4 102.867 16.6133 103.547 17.04C104.24 17.4667 104.767 18.0733 105.127 18.86C105.487 19.6467 105.667 20.5667 105.667 21.62V21.96C105.667 22.1067 105.62 22.22 105.527 22.3C105.447 22.38 105.34 22.42 105.207 22.42H98.2867C98.2867 22.4333 98.2867 22.46 98.2867 22.5C98.2867 22.54 98.2867 22.5733 98.2867 22.6C98.3134 23.1467 98.4334 23.66 98.6467 24.14C98.8601 24.6067 99.1667 24.9867 99.5667 25.28C99.9667 25.5733 100.447 25.72 101.007 25.72C101.487 25.72 101.887 25.6467 102.207 25.5C102.527 25.3533 102.787 25.1933 102.987 25.02C103.187 24.8333 103.32 24.6933 103.387 24.6C103.507 24.4267 103.6 24.3267 103.667 24.3C103.733 24.26 103.84 24.24 103.987 24.24H104.947C105.08 24.24 105.187 24.28 105.267 24.36C105.36 24.4267 105.4 24.5267 105.387 24.66C105.373 24.86 105.267 25.1067 105.067 25.4C104.867 25.68 104.58 25.96 104.207 26.24C103.833 26.52 103.38 26.7533 102.847 26.94C102.313 27.1133 101.7 27.2 101.007 27.2ZM98.2867 21.04H103.767V20.98C103.767 20.38 103.653 19.8467 103.427 19.38C103.213 18.9133 102.9 18.5467 102.487 18.28C102.073 18 101.58 17.86 101.007 17.86C100.433 17.86 99.9401 18 99.5267 18.28C99.1267 18.5467 98.8201 18.9133 98.6067 19.38C98.3934 19.8467 98.2867 20.38 98.2867 20.98V21.04ZM112.258 27.2C111.311 27.2 110.491 27.02 109.798 26.66C109.118 26.2867 108.591 25.76 108.218 25.08C107.845 24.3867 107.645 23.56 107.618 22.6C107.605 22.4 107.598 22.1333 107.598 21.8C107.598 21.4667 107.605 21.2 107.618 21C107.645 20.04 107.845 19.22 108.218 18.54C108.591 17.8467 109.118 17.32 109.798 16.96C110.491 16.5867 111.311 16.4 112.258 16.4C113.031 16.4 113.691 16.5067 114.238 16.72C114.798 16.9333 115.258 17.2067 115.618 17.54C115.978 17.8733 116.245 18.2333 116.418 18.62C116.605 19.0067 116.705 19.3733 116.718 19.72C116.731 19.8533 116.691 19.96 116.598 20.04C116.505 20.12 116.391 20.16 116.258 20.16H115.298C115.165 20.16 115.065 20.1333 114.998 20.08C114.931 20.0133 114.865 19.9067 114.798 19.76C114.558 19.1067 114.231 18.6467 113.818 18.38C113.405 18.1133 112.891 17.98 112.278 17.98C111.478 17.98 110.825 18.2267 110.318 18.72C109.825 19.2133 109.558 20.0067 109.518 21.1C109.505 21.58 109.505 22.0467 109.518 22.5C109.558 23.6067 109.825 24.4067 110.318 24.9C110.825 25.38 111.478 25.62 112.278 25.62C112.891 25.62 113.405 25.4867 113.818 25.22C114.231 24.9533 114.558 24.4933 114.798 23.84C114.865 23.6933 114.931 23.5933 114.998 23.54C115.065 23.4733 115.165 23.44 115.298 23.44H116.258C116.391 23.44 116.505 23.48 116.598 23.56C116.691 23.64 116.731 23.7467 116.718 23.88C116.705 24.16 116.645 24.4467 116.538 24.74C116.431 25.0333 116.258 25.3333 116.018 25.64C115.791 25.9333 115.505 26.2 115.158 26.44C114.811 26.6667 114.391 26.8533 113.898 27C113.418 27.1333 112.871 27.2 112.258 27.2ZM121.993 27.2C121.327 27.2 120.72 27.0667 120.173 26.8C119.627 26.5333 119.187 26.1733 118.853 25.72C118.52 25.2667 118.353 24.7533 118.353 24.18C118.353 23.26 118.727 22.5267 119.473 21.98C120.22 21.4333 121.193 21.0733 122.393 20.9L125.373 20.48V19.9C125.373 19.26 125.187 18.76 124.813 18.4C124.453 18.04 123.86 17.86 123.033 17.86C122.433 17.86 121.947 17.98 121.573 18.22C121.213 18.46 120.96 18.7667 120.813 19.14C120.733 19.34 120.593 19.44 120.393 19.44H119.493C119.347 19.44 119.233 19.4 119.153 19.32C119.087 19.2267 119.053 19.12 119.053 19C119.053 18.8 119.127 18.5533 119.273 18.26C119.433 17.9667 119.673 17.68 119.993 17.4C120.313 17.12 120.72 16.8867 121.213 16.7C121.72 16.5 122.333 16.4 123.053 16.4C123.853 16.4 124.527 16.5067 125.073 16.72C125.62 16.92 126.047 17.1933 126.353 17.54C126.673 17.8867 126.9 18.28 127.033 18.72C127.18 19.16 127.253 19.6067 127.253 20.06V26.54C127.253 26.6733 127.207 26.7867 127.113 26.88C127.033 26.96 126.927 27 126.793 27H125.873C125.727 27 125.613 26.96 125.533 26.88C125.453 26.7867 125.413 26.6733 125.413 26.54V25.68C125.24 25.92 125.007 26.16 124.713 26.4C124.42 26.6267 124.053 26.82 123.613 26.98C123.173 27.1267 122.633 27.2 121.993 27.2ZM122.413 25.7C122.96 25.7 123.46 25.5867 123.913 25.36C124.367 25.12 124.72 24.7533 124.973 24.26C125.24 23.7667 125.373 23.1467 125.373 22.4V21.84L123.053 22.18C122.107 22.3133 121.393 22.54 120.913 22.86C120.433 23.1667 120.193 23.56 120.193 24.04C120.193 24.4133 120.3 24.7267 120.513 24.98C120.74 25.22 121.02 25.4 121.353 25.52C121.7 25.64 122.053 25.7 122.413 25.7ZM133.728 27.2C132.982 27.2 132.342 27.1067 131.808 26.92C131.275 26.7333 130.842 26.5067 130.508 26.24C130.175 25.9733 129.922 25.7067 129.748 25.44C129.588 25.1733 129.502 24.96 129.488 24.8C129.475 24.6533 129.522 24.54 129.628 24.46C129.735 24.38 129.842 24.34 129.948 24.34H130.828C130.908 24.34 130.968 24.3533 131.008 24.38C131.062 24.3933 131.128 24.4467 131.208 24.54C131.382 24.7267 131.575 24.9133 131.788 25.1C132.002 25.2867 132.262 25.44 132.568 25.56C132.888 25.68 133.282 25.74 133.748 25.74C134.428 25.74 134.988 25.6133 135.428 25.36C135.868 25.0933 136.088 24.7067 136.088 24.2C136.088 23.8667 135.995 23.6 135.808 23.4C135.635 23.2 135.315 23.02 134.848 22.86C134.395 22.7 133.768 22.5333 132.968 22.36C132.168 22.1733 131.535 21.9467 131.068 21.68C130.602 21.4 130.268 21.0733 130.068 20.7C129.868 20.3133 129.768 19.88 129.768 19.4C129.768 18.9067 129.915 18.4333 130.208 17.98C130.502 17.5133 130.928 17.1333 131.488 16.84C132.062 16.5467 132.775 16.4 133.628 16.4C134.322 16.4 134.915 16.4867 135.408 16.66C135.902 16.8333 136.308 17.0533 136.628 17.32C136.948 17.5733 137.188 17.8267 137.348 18.08C137.508 18.3333 137.595 18.5467 137.608 18.72C137.622 18.8533 137.582 18.9667 137.488 19.06C137.395 19.14 137.288 19.18 137.168 19.18H136.328C136.235 19.18 136.155 19.16 136.088 19.12C136.035 19.08 135.982 19.0333 135.928 18.98C135.795 18.8067 135.635 18.6333 135.448 18.46C135.275 18.2867 135.042 18.1467 134.748 18.04C134.468 17.92 134.095 17.86 133.628 17.86C132.962 17.86 132.462 18 132.128 18.28C131.795 18.56 131.628 18.9133 131.628 19.34C131.628 19.5933 131.702 19.82 131.848 20.02C131.995 20.22 132.275 20.4 132.688 20.56C133.102 20.72 133.715 20.8933 134.528 21.08C135.408 21.2533 136.102 21.4867 136.608 21.78C137.115 22.0733 137.475 22.4133 137.688 22.8C137.902 23.1867 138.008 23.6333 138.008 24.14C138.008 24.7 137.842 25.2133 137.508 25.68C137.188 26.1467 136.708 26.52 136.068 26.8C135.442 27.0667 134.662 27.2 133.728 27.2ZM144.364 27C143.618 27 143.011 26.86 142.544 26.58C142.078 26.2867 141.738 25.88 141.524 25.36C141.311 24.8267 141.204 24.2 141.204 23.48V18.2H139.644C139.511 18.2 139.398 18.16 139.304 18.08C139.224 17.9867 139.184 17.8733 139.184 17.74V17.06C139.184 16.9267 139.224 16.82 139.304 16.74C139.398 16.6467 139.511 16.6 139.644 16.6H141.204V13.26C141.204 13.1267 141.244 13.02 141.324 12.94C141.418 12.8467 141.531 12.8 141.664 12.8H142.604C142.738 12.8 142.844 12.8467 142.924 12.94C143.018 13.02 143.064 13.1267 143.064 13.26V16.6H145.544C145.678 16.6 145.784 16.6467 145.864 16.74C145.958 16.82 146.004 16.9267 146.004 17.06V17.74C146.004 17.8733 145.958 17.9867 145.864 18.08C145.784 18.16 145.678 18.2 145.544 18.2H143.064V23.34C143.064 23.9667 143.171 24.46 143.384 24.82C143.598 25.18 143.978 25.36 144.524 25.36H145.744C145.878 25.36 145.984 25.4067 146.064 25.5C146.158 25.58 146.204 25.6867 146.204 25.82V26.54C146.204 26.6733 146.158 26.7867 146.064 26.88C145.984 26.96 145.878 27 145.744 27H144.364Z" fill="black"/>
</svg>
