<svg width="39" height="50" viewBox="0 0 39 50" fill="none" xmlns="http://www.w3.org/2000/svg">
<path d="M37.5 30.2326C37.5 34.9165 35.3589 39.494 31.9832 42.916C28.6068 46.3387 24.1004 48.5 19.5 48.5C14.8996 48.5 10.3932 46.3387 7.01684 42.916C3.64113 39.494 1.5 34.9165 1.5 30.2326C1.5 28.0334 2.48613 25.1232 4.16895 21.8617C5.82927 18.6439 8.07498 15.2582 10.3891 12.1609C12.7007 9.06712 15.0562 6.2936 16.9163 4.30305C17.8486 3.30533 18.6402 2.52185 19.2287 1.99814C19.3019 1.93294 19.3704 1.87319 19.4343 1.81868C19.4856 1.86584 19.54 1.91634 19.5973 1.97028C20.1643 2.50354 20.943 3.29568 21.8665 4.29624C23.7105 6.29422 26.0852 9.07277 28.4291 12.1686C30.7763 15.2687 33.0686 18.6555 34.7672 21.874C36.4898 25.1382 37.5 28.0428 37.5 30.2326Z" stroke="#FCE142" stroke-width="3"/>
<path d="M30 29C29.619 31.963 27.4857 38.1111 22 39" stroke="#FCE142" stroke-width="3" stroke-linecap="round"/>
</svg>
