<svg width="63" height="46" viewBox="0 0 63 46" fill="none" xmlns="http://www.w3.org/2000/svg">
<circle cx="32" cy="23" r="11.5" stroke="#FCE142" stroke-width="3"/>
<path d="M61.5 23C61.5 24.4115 60.6224 26.476 58.7777 28.9258C56.9779 31.316 54.4181 33.8608 51.4394 36.1942C45.4234 40.9071 38.0372 44.5 32.1429 44.5C29.268 44.5 25.8973 43.4846 22.3844 41.7761C18.8915 40.0773 15.3653 37.746 12.211 35.2419C9.05585 32.737 6.31207 30.0904 4.37293 27.7846C3.40182 26.6298 2.65633 25.5887 2.16193 24.7162C1.64065 23.7963 1.5 23.2386 1.5 23C1.5 22.7614 1.64065 22.2037 2.16193 21.2838C2.65633 20.4113 3.40182 19.3702 4.37293 18.2154C6.31207 15.9096 9.05585 13.263 12.211 10.7581C15.3653 8.25396 18.8915 5.92269 22.3844 4.22393C25.8973 2.51545 29.268 1.5 32.1429 1.5C35.0126 1.5 38.2986 2.51248 41.6823 4.21496C45.0488 5.90876 48.4108 8.23433 51.4026 10.7344C54.395 13.2348 56.9786 15.8776 58.7993 18.1803C59.7109 19.3333 60.4098 20.374 60.8734 21.2475C61.3597 22.1637 61.5 22.7359 61.5 23Z" stroke="#FCE142" stroke-width="3"/>
</svg>
