<svg width="20" height="45" viewBox="0 0 20 45" fill="none" xmlns="http://www.w3.org/2000/svg">
<path d="M14.8334 27.3733V5.79167C14.8334 4.52084 14.3285 3.30206 13.4299 2.40345C12.5313 1.50483 11.3125 1 10.0417 1C8.77086 1 7.55208 1.50483 6.65347 2.40345C5.75485 3.30206 5.25002 4.52084 5.25002 5.79167V27.3733C3.71147 28.4013 2.54431 29.8969 1.92091 31.6391C1.29751 33.3813 1.25093 35.2778 1.78805 37.0485C2.32518 38.8192 3.41752 40.3702 4.90375 41.4725C6.38998 42.5748 8.19131 43.1698 10.0417 43.1698C11.8921 43.1698 13.6934 42.5748 15.1796 41.4725C16.6659 40.3702 17.7582 38.8192 18.2953 37.0485C18.8324 35.2778 18.7859 33.3813 18.1625 31.6391C17.5391 29.8969 16.3719 28.4013 14.8334 27.3733Z" stroke="#FCE142" stroke-width="2" stroke-linecap="round" stroke-linejoin="round"/>
</svg>
